# xmcd CD database file
#
# Track frame offsets:
#	150
#	24329
#	51968
#	79868
#	106748
#	132983
#	158665
#	181993
#	210345
#	238505
#	263148
#
# Disc length: 3831 seconds
#
# Revision: 0
# Processed by: cddbd v1.5.2PL0 Copyright (c) Steve Scherf et al.
# Submitted via: CDex 1.70beta2
#
DISCID=840ef50b
DTITLE=Down To The Bone - Supercharged
DYEAR=2007
DGENRE=Jazz
TTITLE0=Supercharged
TTITLE1=Funkin Around
TTITLE2=Parkside Shuffle
TTITLE3=Cosmic Fuzz
TTITLE4=Smile To Shine
TTITLE5=Electric Vibes
TTITLE6=Greedy Fingers
TTITLE7=Shake It Up
TTITLE8=Space Dust
TTITLE9=Hip City
TTITLE10=Make It Funky
EXTD=YEAR: 2007
EXTT0=
EXTT1=
EXTT2=
EXTT3=
EXTT4=
EXTT5=
EXTT6=
EXTT7=
EXTT8=
EXTT9=
EXTT10=
PLAYORDER=
